<?xml version="1.0" encoding="UTF-8"?>
<!DOCTYPE svg
PUBLIC "-//W3C//DTD SVG 1.1//EN"
       "http://www.w3.org/Graphics/SVG/1.1/DTD/svg11.dtd">
<svg viewBox="425 55 1395 845" width="970px" height="790px" xmlns="http://www.w3.org/2000/svg" version="1.1">
   <line x1="627" y1="710" x2="637" y2="710" style="stroke:#0bf;stroke-width:1;"/>
   <line x1="810" y1="660" x2="820" y2="660" style="stroke:#0bf;stroke-width:1;"/>
   <line x1="637" y1="710" x2="810" y2="660" style="stroke:#0bf;stroke-width:1;"/>
   <line x1="634.5" y1="710" x2="630.96446609407" y2="713.53553390593" style="stroke:#0bf;stroke-width:2;"/>
   <line x1="634.5" y1="710" x2="630.96446609407" y2="706.46446609407" style="stroke:#0bf;stroke-width:2;"/>
   <line x1="815" y1="660" x2="811.46446609407" y2="663.53553390593" style="stroke:#0bf;stroke-width:2;"/>
   <line x1="815" y1="660" x2="811.46446609407" y2="656.46446609407" style="stroke:#0bf;stroke-width:2;"/>
   <line x1="607" y1="430" x2="617" y2="430" style="stroke:#0b0;stroke-width:1;"/>
   <line x1="830" y1="360" x2="840" y2="360" style="stroke:#0b0;stroke-width:1;"/>
   <line x1="617" y1="430" x2="830" y2="360" style="stroke:#0b0;stroke-width:1;"/>
   <line x1="614.5" y1="430" x2="610.96446609407" y2="433.53553390593" style="stroke:#0b0;stroke-width:2;"/>
   <line x1="614.5" y1="430" x2="610.96446609407" y2="426.46446609407" style="stroke:#0b0;stroke-width:2;"/>
   <line x1="835" y1="360" x2="831.46446609407" y2="363.53553390593" style="stroke:#0b0;stroke-width:2;"/>
   <line x1="835" y1="360" x2="831.46446609407" y2="356.46446609407" style="stroke:#0b0;stroke-width:2;"/>
   <line x1="1230" y1="430" x2="1220" y2="430" style="stroke:#cb0;stroke-width:1;"/>
   <line x1="1007" y1="360" x2="997" y2="360" style="stroke:#cb0;stroke-width:1;"/>
   <line x1="1220" y1="430" x2="1007" y2="360" style="stroke:#cb0;stroke-width:1;"/>
   <line x1="1222.5" y1="430" x2="1226.0355339059" y2="433.53553390593" style="stroke:#cb0;stroke-width:2;"/>
   <line x1="1222.5" y1="430" x2="1226.0355339059" y2="426.46446609407" style="stroke:#cb0;stroke-width:2;"/>
   <line x1="1002" y1="360" x2="1005.5355339059" y2="363.53553390593" style="stroke:#cb0;stroke-width:2;"/>
   <line x1="1002" y1="360" x2="1005.5355339059" y2="356.46446609407" style="stroke:#cb0;stroke-width:2;"/>
   <line x1="1230" y1="150" x2="1220" y2="150" style="stroke:#0b0;stroke-width:1;"/>
   <line x1="1007" y1="100" x2="997" y2="100" style="stroke:#0b0;stroke-width:1;"/>
   <line x1="1220" y1="150" x2="1007" y2="100" style="stroke:#0b0;stroke-width:1;"/>
   <line x1="1222.5" y1="150" x2="1226.0355339059" y2="153.53553390593" style="stroke:#0b0;stroke-width:2;"/>
   <line x1="1222.5" y1="150" x2="1226.0355339059" y2="146.46446609407" style="stroke:#0b0;stroke-width:2;"/>
   <line x1="1002" y1="100" x2="1005.5355339059" y2="103.53553390593" style="stroke:#0b0;stroke-width:2;"/>
   <line x1="1002" y1="100" x2="1005.5355339059" y2="96.464466094067" style="stroke:#0b0;stroke-width:2;"/>
   <line x1="597" y1="150" x2="607" y2="150" style="stroke:#bbb;stroke-width:1;"/>
   <line x1="830" y1="100" x2="840" y2="100" style="stroke:#bbb;stroke-width:1;"/>
   <line x1="607" y1="150" x2="830" y2="100" style="stroke:#bbb;stroke-width:1;"/>
   <line x1="604.5" y1="150" x2="600.96446609407" y2="153.53553390593" style="stroke:#bbb;stroke-width:2;"/>
   <line x1="604.5" y1="150" x2="600.96446609407" y2="146.46446609407" style="stroke:#bbb;stroke-width:2;"/>
   <line x1="835" y1="100" x2="831.46446609407" y2="103.53553390593" style="stroke:#bbb;stroke-width:2;"/>
   <line x1="835" y1="100" x2="831.46446609407" y2="96.464466094067" style="stroke:#bbb;stroke-width:2;"/>
   <rect width="157" height="20" x="470" y="680" style="fill:#007;stroke:black;"/>
   <text width="157" height="20" x="475" y="694" style="fill:#fff;" font-family="Arial" font-size="16px"> cart</text>
   <rect width="157" height="20" x="470" y="700" style="fill:none;stroke:black;"/>
   <text width="157" height="20" x="475" y="714" style="fill:black;" font-family="Arial" font-size="16px">product_id</text>
   <rect width="157" height="20" x="470" y="720" style="fill:none;stroke:black;"/>
   <text width="157" height="20" x="475" y="734" style="fill:black;" font-family="Arial" font-size="16px">quantity</text>
   <rect width="157" height="20" x="450" y="400" style="fill:#007;stroke:black;"/>
   <text width="157" height="20" x="455" y="414" style="fill:#fff;" font-family="Arial" font-size="16px"> order_address</text>
   <rect width="157" height="20" x="450" y="420" style="fill:none;stroke:black;"/>
   <text width="157" height="20" x="455" y="434" style="fill:black;" font-family="Arial" font-size="16px">order_id</text>
   <rect width="157" height="20" x="450" y="440" style="fill:none;stroke:black;"/>
   <text width="157" height="20" x="455" y="454" style="fill:black;" font-family="Arial" font-size="16px">city</text>
   <rect width="157" height="20" x="450" y="460" style="fill:none;stroke:black;"/>
   <text width="157" height="20" x="455" y="474" style="fill:black;" font-family="Arial" font-size="16px">province</text>
   <rect width="157" height="20" x="450" y="480" style="fill:none;stroke:black;"/>
   <text width="157" height="20" x="455" y="494" style="fill:black;" font-family="Arial" font-size="16px">street</text>
   <rect width="157" height="20" x="450" y="500" style="fill:none;stroke:black;"/>
   <text width="157" height="20" x="455" y="514" style="fill:black;" font-family="Arial" font-size="16px">postal</text>
   <rect width="157" height="20" x="1230" y="400" style="fill:#007;stroke:black;"/>
   <text width="157" height="20" x="1235" y="414" style="fill:#fff;" font-family="Arial" font-size="16px"> order_pending</text>
   <rect width="157" height="20" x="1230" y="420" style="fill:#aea;stroke:black;"/>
   <text width="157" height="20" x="1235" y="434" style="fill:black;" font-family="Arial" font-size="16px">order_id</text>
   <rect width="157" height="20" x="1230" y="440" style="fill:none;stroke:black;"/>
   <text width="157" height="20" x="1235" y="454" style="fill:black;" font-family="Arial" font-size="16px">user_id</text>
   <rect width="157" height="20" x="1230" y="460" style="fill:none;stroke:black;"/>
   <text width="157" height="20" x="1235" y="474" style="fill:black;" font-family="Arial" font-size="16px">invoice_number</text>
   <rect width="157" height="20" x="1230" y="480" style="fill:none;stroke:black;"/>
   <text width="157" height="20" x="1235" y="494" style="fill:black;" font-family="Arial" font-size="16px">product_id</text>
   <rect width="157" height="20" x="1230" y="500" style="fill:none;stroke:black;"/>
   <text width="157" height="20" x="1235" y="514" style="fill:black;" font-family="Arial" font-size="16px">quantity</text>
   <rect width="157" height="20" x="1230" y="520" style="fill:none;stroke:black;"/>
   <text width="157" height="20" x="1235" y="534" style="fill:black;" font-family="Arial" font-size="16px">order_status</text>
   <rect width="157" height="20" x="840" y="70" style="fill:#007;stroke:black;"/>
   <text width="157" height="20" x="845" y="84" style="fill:#fff;" font-family="Arial" font-size="16px"> role</text>
   <rect width="157" height="20" x="840" y="90" style="fill:#aea;stroke:black;"/>
   <text width="157" height="20" x="845" y="104" style="fill:black;" font-family="Arial" font-size="16px">user_id</text>
   <rect width="157" height="20" x="840" y="110" style="fill:none;stroke:black;"/>
   <text width="157" height="20" x="845" y="124" style="fill:black;" font-family="Arial" font-size="16px">name</text>
   <rect width="157" height="20" x="840" y="130" style="fill:none;stroke:black;"/>
   <text width="157" height="20" x="845" y="144" style="fill:black;" font-family="Arial" font-size="16px">email</text>
   <rect width="157" height="20" x="840" y="150" style="fill:none;stroke:black;"/>
   <text width="157" height="20" x="845" y="164" style="fill:black;" font-family="Arial" font-size="16px">password</text>
   <rect width="157" height="20" x="840" y="170" style="fill:none;stroke:black;"/>
   <text width="157" height="20" x="845" y="184" style="fill:black;" font-family="Arial" font-size="16px">role</text>
   <rect width="157" height="20" x="1250" y="660" style="fill:#007;stroke:black;"/>
   <text width="157" height="20" x="1255" y="674" style="fill:#fff;" font-family="Arial" font-size="16px"> settings</text>
   <rect width="157" height="20" x="1250" y="680" style="fill:#aea;stroke:black;"/>
   <text width="157" height="20" x="1255" y="694" style="fill:black;" font-family="Arial" font-size="16px">id</text>
   <rect width="157" height="20" x="1250" y="700" style="fill:none;stroke:black;"/>
   <text width="157" height="20" x="1255" y="714" style="fill:black;" font-family="Arial" font-size="16px">title</text>
   <rect width="157" height="20" x="1250" y="720" style="fill:none;stroke:black;"/>
   <text width="157" height="20" x="1255" y="734" style="fill:black;" font-family="Arial" font-size="16px">small_description</text>
   <rect width="157" height="20" x="1250" y="740" style="fill:none;stroke:black;"/>
   <text width="157" height="20" x="1255" y="754" style="fill:black;" font-family="Arial" font-size="16px">sub_title</text>
   <rect width="157" height="20" x="1250" y="760" style="fill:none;stroke:black;"/>
   <text width="157" height="20" x="1255" y="774" style="fill:black;" font-family="Arial" font-size="16px">sub_description</text>
   <rect width="157" height="20" x="1250" y="780" style="fill:none;stroke:black;"/>
   <text width="157" height="20" x="1255" y="794" style="fill:black;" font-family="Arial" font-size="16px">phone</text>
   <rect width="157" height="20" x="1250" y="800" style="fill:none;stroke:black;"/>
   <text width="157" height="20" x="1255" y="814" style="fill:black;" font-family="Arial" font-size="16px">email</text>
   <rect width="157" height="20" x="1230" y="120" style="fill:#007;stroke:black;"/>
   <text width="157" height="20" x="1235" y="134" style="fill:#fff;" font-family="Arial" font-size="16px"> tbl_admin</text>
   <rect width="157" height="20" x="1230" y="140" style="fill:none;stroke:black;"/>
   <text width="157" height="20" x="1235" y="154" style="fill:black;" font-family="Arial" font-size="16px">admin_id</text>
   <rect width="157" height="20" x="1230" y="160" style="fill:none;stroke:black;"/>
   <text width="157" height="20" x="1235" y="174" style="fill:black;" font-family="Arial" font-size="16px">name</text>
   <rect width="157" height="20" x="1230" y="180" style="fill:none;stroke:black;"/>
   <text width="157" height="20" x="1235" y="194" style="fill:black;" font-family="Arial" font-size="16px">email</text>
   <rect width="157" height="20" x="1230" y="200" style="fill:none;stroke:black;"/>
   <text width="157" height="20" x="1235" y="214" style="fill:black;" font-family="Arial" font-size="16px">gender</text>
   <rect width="157" height="20" x="1230" y="220" style="fill:none;stroke:black;"/>
   <text width="157" height="20" x="1235" y="234" style="fill:black;" font-family="Arial" font-size="16px">phone</text>
   <rect width="157" height="20" x="1230" y="240" style="fill:none;stroke:black;"/>
   <text width="157" height="20" x="1235" y="254" style="fill:black;" font-family="Arial" font-size="16px">dob</text>
   <rect width="157" height="20" x="1230" y="260" style="fill:none;stroke:black;"/>
   <text width="157" height="20" x="1235" y="274" style="fill:black;" font-family="Arial" font-size="16px">address</text>
   <rect width="157" height="20" x="820" y="630" style="fill:#007;stroke:black;"/>
   <text width="157" height="20" x="825" y="644" style="fill:#fff;" font-family="Arial" font-size="16px"> tbl_medicine</text>
   <rect width="157" height="20" x="820" y="650" style="fill:#aea;stroke:black;"/>
   <text width="157" height="20" x="825" y="664" style="fill:black;" font-family="Arial" font-size="16px">medicine_id</text>
   <rect width="157" height="20" x="820" y="670" style="fill:none;stroke:black;"/>
   <text width="157" height="20" x="825" y="684" style="fill:black;" font-family="Arial" font-size="16px">medicine_name</text>
   <rect width="157" height="20" x="820" y="690" style="fill:none;stroke:black;"/>
   <text width="157" height="20" x="825" y="704" style="fill:black;" font-family="Arial" font-size="16px">medicine_description</text>
   <rect width="157" height="20" x="820" y="710" style="fill:none;stroke:black;"/>
   <text width="157" height="20" x="825" y="724" style="fill:black;" font-family="Arial" font-size="16px">manufacturer</text>
   <rect width="157" height="20" x="820" y="730" style="fill:none;stroke:black;"/>
   <text width="157" height="20" x="825" y="744" style="fill:black;" font-family="Arial" font-size="16px">price</text>
   <rect width="157" height="20" x="820" y="750" style="fill:none;stroke:black;"/>
   <text width="157" height="20" x="825" y="764" style="fill:black;" font-family="Arial" font-size="16px">quantity</text>
   <rect width="157" height="20" x="820" y="770" style="fill:none;stroke:black;"/>
   <text width="157" height="20" x="825" y="784" style="fill:black;" font-family="Arial" font-size="16px">expiration_date</text>
   <rect width="157" height="20" x="820" y="790" style="fill:none;stroke:black;"/>
   <text width="157" height="20" x="825" y="804" style="fill:black;" font-family="Arial" font-size="16px">dosage</text>
   <rect width="157" height="20" x="820" y="810" style="fill:none;stroke:black;"/>
   <text width="157" height="20" x="825" y="824" style="fill:black;" font-family="Arial" font-size="16px">images</text>
   <rect width="157" height="20" x="440" y="120" style="fill:#007;stroke:black;"/>
   <text width="157" height="20" x="445" y="134" style="fill:#fff;" font-family="Arial" font-size="16px"> tbl_pharmacy</text>
   <rect width="157" height="20" x="440" y="140" style="fill:none;stroke:black;"/>
   <text width="157" height="20" x="445" y="154" style="fill:black;" font-family="Arial" font-size="16px">pharmacy_id</text>
   <rect width="157" height="20" x="440" y="160" style="fill:none;stroke:black;"/>
   <text width="157" height="20" x="445" y="174" style="fill:black;" font-family="Arial" font-size="16px">pan</text>
   <rect width="157" height="20" x="440" y="180" style="fill:none;stroke:black;"/>
   <text width="157" height="20" x="445" y="194" style="fill:black;" font-family="Arial" font-size="16px">pharmacy_name</text>
   <rect width="157" height="20" x="440" y="200" style="fill:none;stroke:black;"/>
   <text width="157" height="20" x="445" y="214" style="fill:black;" font-family="Arial" font-size="16px">email</text>
   <rect width="157" height="20" x="440" y="220" style="fill:none;stroke:black;"/>
   <text width="157" height="20" x="445" y="234" style="fill:black;" font-family="Arial" font-size="16px">phone</text>
   <rect width="157" height="20" x="440" y="240" style="fill:none;stroke:black;"/>
   <text width="157" height="20" x="445" y="254" style="fill:black;" font-family="Arial" font-size="16px">address</text>
   <rect width="157" height="20" x="840" y="330" style="fill:#007;stroke:black;"/>
   <text width="157" height="20" x="845" y="344" style="fill:#fff;" font-family="Arial" font-size="16px"> user_orders</text>
   <rect width="157" height="20" x="840" y="350" style="fill:#aea;stroke:black;"/>
   <text width="157" height="20" x="845" y="364" style="fill:black;" font-family="Arial" font-size="16px">order_id</text>
   <rect width="157" height="20" x="840" y="370" style="fill:none;stroke:black;"/>
   <text width="157" height="20" x="845" y="384" style="fill:black;" font-family="Arial" font-size="16px">user_id</text>
   <rect width="157" height="20" x="840" y="390" style="fill:none;stroke:black;"/>
   <text width="157" height="20" x="845" y="404" style="fill:black;" font-family="Arial" font-size="16px">amount_due</text>
   <rect width="157" height="20" x="840" y="410" style="fill:none;stroke:black;"/>
   <text width="157" height="20" x="845" y="424" style="fill:black;" font-family="Arial" font-size="16px">invoice_number</text>
   <rect width="157" height="20" x="840" y="430" style="fill:none;stroke:black;"/>
   <text width="157" height="20" x="845" y="444" style="fill:black;" font-family="Arial" font-size="16px">total_products</text>
   <rect width="157" height="20" x="840" y="450" style="fill:none;stroke:black;"/>
   <text width="157" height="20" x="845" y="464" style="fill:black;" font-family="Arial" font-size="16px">order_date</text>
   <rect width="157" height="20" x="840" y="470" style="fill:none;stroke:black;"/>
   <text width="157" height="20" x="845" y="484" style="fill:black;" font-family="Arial" font-size="16px">order_status</text>
</svg>
